<svg width="80" height="80" xmlns="http://www.w3.org/2000/svg">

 <g>
  <title>background</title>
  <rect fill="none" id="canvas_background" height="82" width="82" y="-1" x="-1"/>
 </g>
 <g>
  <title>Layer 1</title>
  <g id="svg_8">
   <path id="svg_2" d="m0.034747,0l80,0l0,40.5c-2.1,-1.5 -3.8,-2 -6,-2c-2.9,-6.9 -5.4,-13.3 -8.9,-19.3c1.1,-3.4 0.7,-6.8 -1.9,-10c-2.6,-3.2 -7.9,-4.8 -12.3,-2.6c-3.6,1.7 -5.5,5.1 -5.7,8.1c-1.8,1.2 -2.7,2 -4.6,4.6c-1.9,2.6 -4,7.3 -5.6,11c-6,0.4 -8.3,3 -9.8,6.6c-1.5,3.6 0,9.5 3,11.6c-1.3,3.6 -2.8,6.5 -5.6,8.9c-2.7,-3.8 -6.6,-4.7 -10.1,-4.2c-3.5,0.4 -7.4,3.4 -8.3,7.6l-4.2,0l0,-60.8z"/>
   <path id="svg_3" d="m46.734747,21.5c3.6,4.7 9.3,5.9 14.5,2.9c2.4,5.4 4.8,10.8 6.9,15.8c-4.4,2.7 -5.5,8.6 -3.5,12.9c2,4.3 6,6.5 11.7,5.7c1.3,2.8 2.5,5.3 3.8,7.9c-0.03,4.5 -0.004,9.2 0,13.3l-80.1,0c0.119,-4.7 -0.12,-8.9 0,-13.1c1.5,0 3.2,0.01 4.6,0c1.9,4.8 7.3,7.7 12.2,6.3c4.9,-1.4 7.4,-5.5 7.7,-9.4c4.7,-3.2 7.7,-7.9 9.5,-13c4.2,0.5 8.7,-2.3 10.3,-6.5c1.6,-4.2 0.6,-8.9 -3.5,-12.1c1.5,-4 3.4,-7.8 5.9,-10.8l0,0.1z"/>
   <circle transform="matrix(1,0,0,1,5.043002,5.000003) " id="svg_4" r="4.4" cx="9.224745" cy="58.029024"/>
   <circle transform="matrix(1,0,0,1,5.043002,5.000003) " id="svg_5" r="4.4" cx="29.824745" cy="35.599997"/>
   <circle transform="matrix(1,0,0,1,5.043002,5.000003) " id="svg_6" r="4.4" cx="50.424745" cy="10.799997"/>
   <circle transform="matrix(1,0,0,1,5.043002,5.000003) " id="svg_7" r="4.4" cx="68.924745" cy="43.799997"/>
  </g>
 </g>
</svg>