<?xml version="1.0" encoding="iso-8859-1"?>
<!-- Generator: Adobe Illustrator 18.1.1, SVG Export Plug-In . SVG Version: 6.00 Build 0)  -->
<svg version="1.1" id="Capa_1" xmlns="http://www.w3.org/2000/svg" xmlns:xlink="http://www.w3.org/1999/xlink" x="0px" y="0px"
	 viewBox="0 0 288.093 288.093" style="enable-background:new 0 0 288.093 288.093;" xml:space="preserve">
<g>
	<path style="fill:#010002;" d="M261.472,205.368v-39.711c0-10.378,10.737-10.704,10.737-10.704
		c10.71,0,11.063,11.384,11.063,11.384v32.868c0,6.075-3.486,10.889-7.669,14.479C268.76,219.548,261.472,214.375,261.472,205.368z"
		/>
	<path style="fill:#010002;" d="M261.472,127.905V88.2c0-10.372,10.737-10.737,10.737-10.737c10.71,0,11.063,10.737,11.063,10.737
		v33.896c0,8.197-2.991,13.347-6.755,16.6C269.69,144.581,261.472,136.912,261.472,127.905z"/>
	<path style="fill:#010002;" d="M261.472,50.442V11.417C261.472,0,272.573,0,272.573,0c11.389,0,10.699,11.063,10.699,11.063v33.902
		c0,8.05-2.981,13.13-6.734,16.334C269.679,67.151,261.472,59.46,261.472,50.442z"/>
	<path style="fill:#010002;" d="M238.655,0.359L62.277,0.691c0,0-11.427-0.685-11.427,10.731v265.247c0,0,0,11.417,11.427,11.417
		h166c0,0,21.805,1.039,21.805-21.435V11.748C250.082,11.748,249.723,0.359,238.655,0.359z M231.149,74.423
		c0,9.007-7.305,16.317-16.317,16.317H88.825c-9.013,0-16.317-7.31-16.317-16.317V45.411c0-9.007,7.305-16.317,16.317-16.317
		h126.007c9.013,0,16.317,7.31,16.317,16.317C231.149,45.411,231.149,74.423,231.149,74.423z"/>
	<path style="fill:#010002;" d="M23.415,287.678h12.227V4.721c0,0-1.947,0-12.227,0c-10.274,0-18.602,8.567-18.602,19.14v244.676
		C4.819,279.106,13.146,287.678,23.415,287.678z"/>
</g>
<g>
</g>
<g>
</g>
<g>
</g>
<g>
</g>
<g>
</g>
<g>
</g>
<g>
</g>
<g>
</g>
<g>
</g>
<g>
</g>
<g>
</g>
<g>
</g>
<g>
</g>
<g>
</g>
<g>
</g>
</svg>
