<?xml version="1.0" encoding="utf-8"?>
<svg viewBox="5 5 80 80" width="80" height="80" xmlns="http://www.w3.org/2000/svg">
  <defs>
    <linearGradient id="gradient-0" gradientUnits="userSpaceOnUse" x1="45" y1="16" x2="45" y2="85">
      <stop offset="0" style="stop-color: rgb(31, 129, 226);"/>
      <stop offset="1" style="stop-color: rgb(24, 110, 197);"/>
    </linearGradient>
    <linearGradient gradientTransform="matrix(0.999994, -0.003565, 0.003585, 1.005376, 4.515171, -7.297327)" y2="79.926" x2="39.957" y1="12.517" x1="39.957" gradientUnits="userSpaceOnUse" id="gradient-1">
      <stop id="stop-1" offset="0" style="stop-color: rgb(30, 144, 255);"/>
      <stop id="stop-2" offset="1" style="stop-color: rgb(75, 165, 255);"/>
    </linearGradient>
  </defs>
  <path d="M 5.0 16.0 C 5.0 16.0 9.825 16.106 11.839 16.258 C 13.853 16.41 15.768 16.512 17.034 16.862 C 18.3 17.212 18.712 17.44 19.45 17.95 C 20.188 18.46 20.894 19.141 21.383 19.883 C 21.872 20.625 22.079 21.391 22.349 22.299 C 22.619 23.207 22.732 24.232 22.953 25.319 C 23.174 26.406 23.396 27.674 23.678 28.822 C 23.96 29.97 24.264 30.976 24.644 32.205 C 25.024 33.434 25.431 34.838 25.973 36.191 C 26.515 37.544 27.26 39.011 27.906 40.299 C 28.552 41.587 29.212 42.817 29.839 43.923 C 30.466 45.029 30.968 45.874 31.651 46.943 C 32.334 48.012 33.101 49.196 33.946 50.326 C 34.791 51.456 36.725 53.708 36.725 53.708 L 39.383 56.366 C 39.383 56.366 41.613 58.584 42.644 59.507 C 43.675 60.43 44.557 61.158 45.544 61.923 C 46.531 62.688 47.594 63.476 48.564 64.097 C 49.534 64.718 50.256 65.238 51.325 65.86 C 52.393 66.482 53.676 67.174 54.966 67.842 C 56.256 68.51 57.623 69.107 59.074 69.654 C 60.525 70.201 62.132 70.702 63.664 71.104 C 65.196 71.506 66.584 71.858 68.255 72.164 C 69.926 72.47 71.657 72.685 73.691 72.916 C 75.725 73.147 78.583 73.307 80.456 73.399 C 82.329 73.491 84.926 73.52 85.0 73.52 L 85.0 85.0 L 5.0 85.0 L 5.0 16.0 Z" id="path35" style="fill: url(#gradient-0);">
    <title>BottomFill</title>
  </path>
  <path d="M 5.0 5.0 L 5.0 16.0 C 5.0 16.0 9.825 16.106 11.839 16.258 C 13.853 16.41 15.768 16.512 17.034 16.862 C 18.3 17.212 18.712 17.44 19.45 17.95 C 20.188 18.46 20.894 19.141 21.383 19.883 C 21.872 20.625 22.079 21.391 22.349 22.299 C 22.619 23.207 22.732 24.232 22.953 25.319 C 23.174 26.406 23.396 27.674 23.678 28.822 C 23.96 29.97 24.264 30.976 24.644 32.205 C 25.024 33.434 25.431 34.838 25.973 36.191 C 26.515 37.544 27.26 39.011 27.906 40.299 C 28.552 41.587 29.212 42.817 29.839 43.923 C 30.466 45.029 30.968 45.874 31.651 46.943 C 32.334 48.012 33.101 49.196 33.946 50.326 C 34.791 51.456 36.725 53.708 36.725 53.708 L 39.383 56.366 C 39.383 56.366 41.613 58.584 42.644 59.507 C 43.675 60.43 44.557 61.158 45.544 61.923 C 46.531 62.688 47.594 63.476 48.564 64.097 C 49.534 64.718 50.256 65.238 51.325 65.86 C 52.393 66.482 53.676 67.174 54.966 67.842 C 56.256 68.51 57.623 69.107 59.074 69.654 C 60.525 70.201 62.132 70.702 63.664 71.104 C 65.196 71.506 66.584 71.858 68.255 72.164 C 69.926 72.47 71.657 72.685 73.691 72.916 C 75.725 73.147 78.583 73.307 80.456 73.399 C 82.329 73.491 84.926 73.52 85.0 73.52 L 85.0 5.0 L 5.0 5.0 Z" style="fill: url(#gradient-1);" id="path-1">
    <title>TopFill</title>
  </path>
  <path style="fill: none; stroke: rgb(255, 255, 255); stroke-width: 6px;" d="M 5 16 L 11.354 16 C 15.061 16.168 15.768 16.391 17.034 16.741 C 18.3 17.091 18.712 17.44 19.45 17.95 C 20.188 18.46 20.894 19.141 21.383 19.883 C 21.872 20.625 22.079 21.391 22.349 22.299 C 22.619 23.207 22.732 24.232 22.953 25.319 C 23.174 26.406 23.396 27.674 23.678 28.822 C 23.96 29.97 24.264 30.976 24.644 32.205 C 25.024 33.434 25.431 34.838 25.973 36.191 C 26.515 37.544 27.26 39.011 27.906 40.299 C 28.552 41.587 29.212 42.817 29.839 43.923 C 30.466 45.029 30.968 45.874 31.651 46.943 C 32.334 48.012 33.101 49.196 33.946 50.326 C 34.791 51.456 36.725 53.708 36.725 53.708 L 39.383 56.366 C 39.383 56.366 41.613 58.584 42.644 59.507 C 43.675 60.43 44.557 61.158 45.544 61.923 C 46.531 62.688 47.594 63.476 48.564 64.097 C 49.534 64.718 50.256 65.238 51.325 65.86 C 52.393 66.482 53.676 67.174 54.966 67.842 C 56.256 68.51 57.623 69.107 59.074 69.654 C 60.525 70.201 62.132 70.702 63.664 71.104 C 65.196 71.506 66.584 71.858 68.255 72.164 C 69.926 72.47 71.657 72.685 73.691 72.916 C 75.725 73.147 78.583 73.307 80.456 73.399 C 82.329 73.491 84.926 73.52 85 73.52">
    <title>Curve</title>
  </path>
  <circle style="stroke-width: 6px; stroke: rgb(255, 255, 255); fill: rgb(4, 111, 214);" cx="22.47" cy="31.477" r="7.29"/>
  <circle style="stroke-width: 6px; stroke: rgb(255, 255, 255); fill: rgb(4, 111, 214);" cx="68.013" cy="68.98" r="7.29"/>
  <circle style="stroke-width: 6px; stroke: rgb(255, 255, 255); fill: rgb(4, 111, 214);" cx="42.329" cy="55.987" r="7.29"/>
</svg>