<?xml version="1.0" encoding="utf-8"?>
<svg viewBox="0 0 527.2 80" version="1.1" xmlns="http://www.w3.org/2000/svg">
  <defs>
    <linearGradient id="gradient" x1="0.5" x2="0.5" y1="0" y2="1">
      <stop stop-color="#1aa1e3" offset="0"/>
      <stop stop-color="#3dafe8" offset="1"/>
    </linearGradient>
  </defs>
  <g transform="matrix(1, 0, 0, 1, 0.069822, 0)">
    <rect fill="#ffffff" width="80" height="80"/>
    <path fill="url(#gradient)" d="M -0.033 0 L 79.967 0 L 79.967 40.5 C 77.867 39 76.167 38.5 73.967 38.5 C 71.067 31.6 68.567 25.2 65.067 19.2 C 66.167 15.8 65.767 12.4 63.167 9.2 C 60.567 6 55.267 4.4 50.867 6.6 C 47.267 8.3 45.367 11.7 45.167 14.7 C 43.367 15.9 42.467 16.7 40.567 19.3 C 38.667 21.9 36.567 26.6 34.967 30.3 C 28.967 30.7 26.667 33.3 25.167 36.9 C 23.667 40.5 25.167 46.4 28.167 48.5 C 26.867 52.1 25.367 55 22.567 57.4 C 19.867 53.6 15.967 52.7 12.467 53.2 C 8.967 53.6 5.067 56.6 4.167 60.8 L -0.033 60.8 Z"/>
    <path fill="#0d86c2" d="M 46.667 21.5 C 50.267 26.2 55.967 27.4 61.167 24.4 C 63.567 29.8 65.967 35.2 68.067 40.2 C 63.667 42.9 62.567 48.8 64.567 53.1 C 66.567 57.4 70.567 59.6 76.267 58.8 C 77.567 61.6 78.767 64.1 80.067 66.7 C 80.037 71.2 80.063 75.9 80.067 80 L -0.033 80 C 0.086 75.3 -0.153 71.1 -0.033 66.9 C 1.467 66.9 3.167 66.91 4.567 66.9 C 6.467 71.7 11.867 74.6 16.767 73.2 C 21.667 71.8 24.167 67.7 24.467 63.8 C 29.167 60.6 32.167 55.9 33.967 50.8 C 38.167 51.3 42.667 48.5 44.267 44.3 C 45.867 40.1 44.867 35.4 40.767 32.2 C 42.267 28.2 44.167 24.4 46.667 21.4 Z"/>
    <circle fill="#016ca1" cy="63.2" cx="14.2" r="4.4"/>
    <circle fill="#016ca1" cy="40.6" cx="34.8" r="4.4"/>
    <circle fill="#016ca1" cy="15.8" cx="55.4" r="4.4"/>
    <circle fill="#016ca1" cy="48.8" cx="73.9" r="4.4"/>
  </g>
  <g transform="matrix(1, 0, 0, 1, 100.619926, -103.189003)">
    <path d="M 29.348 145.417 L 29.348 146.51 L 5.394 146.51 C 5.448 150.704 5.985 154.028 7.004 156.482 C 8.024 158.935 9.485 160.691 11.386 161.746 C 13.286 162.803 15.725 163.33 18.699 163.33 C 21.099 163.33 24.024 162.82 27.474 161.8 L 27.474 164.272 C 24.469 165.242 21.494 165.727 18.55 165.727 C 14.999 165.727 12.057 165.067 9.719 163.747 C 7.387 162.421 5.616 160.267 4.406 157.284 C 3.187 154.296 2.578 150.34 2.578 145.417 C 2.578 138.278 3.804 133.116 6.257 129.936 C 8.709 126.76 12.05 125.174 16.273 125.174 C 20.473 125.174 23.705 126.732 25.967 129.85 C 28.22 132.967 29.348 138.155 29.348 145.417 Z M 16.273 127.57 C 12.961 127.57 10.347 128.809 8.431 131.283 C 6.514 133.758 5.501 138.032 5.394 144.102 L 26.531 144.102 C 26.477 139.929 26.021 136.626 25.162 134.194 C 24.302 131.768 23.135 130.06 21.654 129.068 C 20.183 128.07 18.389 127.57 16.273 127.57 Z M 47.189 125.174 C 50.033 125.174 52.393 125.566 54.272 126.351 C 56.15 127.142 57.579 128.455 58.562 130.288 C 59.534 132.122 60.021 134.565 60.021 137.618 L 60.021 165.075 L 57.676 165.075 L 57.446 160.634 L 57.123 160.634 C 55.851 162.281 54.288 163.531 52.433 164.379 C 50.576 165.228 48.514 165.652 46.246 165.652 C 44.03 165.652 42.087 165.26 40.416 164.475 C 38.751 163.684 37.456 162.518 36.528 160.976 C 35.601 159.436 35.138 157.573 35.138 155.39 C 35.138 152.038 36.196 149.428 38.312 147.559 C 40.42 145.688 43.639 144.538 47.971 144.102 L 57.365 143.086 L 57.365 137.553 C 57.365 135 56.974 132.995 56.192 131.54 C 55.41 130.085 54.28 129.061 52.8 128.469 C 51.329 127.87 49.431 127.57 47.109 127.57 C 45.674 127.57 44.098 127.71 42.382 127.987 C 40.657 128.266 38.947 128.686 37.254 129.25 L 37.254 126.768 C 38.634 126.283 40.232 125.894 42.048 125.602 C 43.858 125.315 45.571 125.174 47.189 125.174 Z M 46.488 163.256 C 48.518 163.256 50.489 162.771 52.397 161.8 C 54.298 160.829 55.954 159.229 57.365 156.996 L 57.365 145.526 L 47.891 146.51 C 44.525 146.823 42.04 147.689 40.438 149.109 C 38.836 150.529 38.035 152.526 38.035 155.102 C 38.035 157.842 38.759 159.885 40.208 161.234 C 41.657 162.581 43.751 163.256 46.488 163.256 Z M 77.79 165.727 C 74.791 165.727 71.845 165.268 68.947 164.347 L 68.947 161.876 C 70.664 162.381 72.22 162.749 73.615 162.977 C 75.019 163.212 76.409 163.33 77.79 163.33 C 81.154 163.33 83.757 162.621 85.597 161.201 C 87.437 159.781 88.357 157.748 88.357 155.102 C 88.357 152.791 87.774 151.018 86.609 149.784 C 85.451 148.543 83.657 147.593 81.228 146.938 L 77.629 145.996 C 74.217 145.075 71.798 143.789 70.372 142.134 C 68.953 140.485 68.245 138.348 68.245 135.724 C 68.245 133.691 68.766 131.88 69.809 130.288 C 70.851 128.697 72.377 127.446 74.386 126.533 C 76.394 125.626 78.782 125.174 81.549 125.174 C 84.155 125.174 86.685 125.438 89.139 125.965 L 89.139 128.448 C 87.75 128.134 86.478 127.909 85.321 127.773 C 84.155 127.637 82.899 127.57 81.549 127.57 C 79.227 127.57 77.276 127.924 75.696 128.629 C 74.116 129.336 72.937 130.288 72.155 131.486 C 71.373 132.686 70.982 134.051 70.982 135.585 C 70.982 137.668 71.534 139.33 72.637 140.571 C 73.748 141.805 75.493 142.74 77.87 143.374 L 81.47 144.316 C 85.041 145.266 87.537 146.596 88.955 148.308 C 90.382 150.019 91.094 152.235 91.094 154.952 C 91.094 158.348 89.933 160.995 87.609 162.891 C 85.287 164.783 82.013 165.727 77.79 165.727 Z M 109.993 162.635 L 123.332 125.751 L 126.311 125.751 L 105.957 181.093 L 103.14 181.093 L 109.096 165.075 L 108.153 165.075 L 93.676 125.751 L 96.643 125.751 L 109.993 162.635 Z" style="fill: rgb(51, 51, 51); white-space: pre;"/>
    <path d="M 143.324 165.292 C 140.304 165.292 136.785 165.097 132.767 164.703 L 132.767 111.513 C 137.045 110.785 140.982 110.422 144.577 110.422 C 152.957 110.422 159.196 112.661 163.298 117.141 C 167.407 121.614 169.461 128.538 169.461 137.911 C 169.461 144.317 168.484 149.534 166.529 153.564 C 164.574 157.596 161.673 160.556 157.824 162.446 C 153.976 164.343 149.142 165.292 143.324 165.292 Z M 144.037 161.429 C 148.729 161.429 152.588 160.648 155.616 159.085 C 158.646 157.516 160.914 155.009 162.423 151.563 C 163.934 148.118 164.689 143.568 164.689 137.911 C 164.689 132.303 163.973 127.764 162.538 124.288 C 161.106 120.822 158.928 118.278 156.007 116.66 C 153.086 115.048 149.331 114.242 144.738 114.242 C 142.523 114.242 140.043 114.424 137.298 114.787 L 137.298 161.108 C 139.154 161.322 141.4 161.429 144.037 161.429 Z M 182.852 164.854 L 178.309 164.854 L 178.309 125.423 L 182.852 125.423 L 182.852 164.854 Z M 180.575 116.178 C 179.509 116.178 178.67 115.904 178.057 115.354 C 177.443 114.806 177.137 114.06 177.137 113.118 C 177.137 112.169 177.443 111.41 178.057 110.839 C 178.67 110.269 179.509 109.983 180.575 109.983 C 181.649 109.983 182.491 110.269 183.106 110.839 C 183.718 111.41 184.025 112.169 184.025 113.118 C 184.025 114.06 183.718 114.806 183.106 115.354 C 182.491 115.904 181.649 116.178 180.575 116.178 Z M 208.48 109.042 C 205.743 109.042 203.707 109.648 202.373 110.86 C 201.039 112.073 200.372 114.013 200.372 116.681 L 200.372 125.423 L 211.688 125.423 L 211.688 129.061 L 200.372 129.061 L 200.372 164.854 L 195.876 164.854 L 195.876 129.061 L 188.402 129.061 L 188.402 125.423 L 195.876 125.423 L 195.876 116.788 C 195.876 113.008 196.919 110.143 199.004 108.196 C 201.097 106.256 204.175 105.285 208.238 105.285 C 210.146 105.285 211.765 105.407 213.091 105.65 L 213.091 109.438 C 211.426 109.172 209.89 109.042 208.48 109.042 Z M 230.274 109.042 C 227.537 109.042 225.502 109.648 224.168 110.86 C 222.833 112.073 222.166 114.013 222.166 116.681 L 222.166 125.423 L 233.482 125.423 L 233.482 129.061 L 222.166 129.061 L 222.166 164.854 L 217.67 164.854 L 217.67 129.061 L 210.197 129.061 L 210.197 125.423 L 217.67 125.423 L 217.67 116.788 C 217.67 113.008 218.714 110.143 220.798 108.196 C 222.892 106.256 225.969 105.285 230.032 105.285 C 231.941 105.285 233.559 105.407 234.885 105.65 L 234.885 109.438 C 233.221 109.172 231.685 109.042 230.274 109.042 Z M 237.786 164.854 L 237.786 125.423 L 241.66 125.423 L 242.006 130.774 L 242.397 130.774 C 243.653 128.882 245.231 127.456 247.134 126.493 C 249.044 125.538 251.09 125.06 253.274 125.06 C 253.879 125.06 254.639 125.121 255.551 125.241 L 255.551 129.318 C 254.977 129.247 254.141 129.211 253.044 129.211 C 250.882 129.211 248.82 129.765 246.857 130.869 C 244.903 131.968 243.393 133.501 242.327 135.471 L 242.327 164.854 L 237.786 164.854 Z M 270.382 124.835 C 273.486 124.835 276.043 125.255 278.053 126.098 C 280.062 126.931 281.579 128.309 282.606 130.227 C 283.633 132.146 284.147 134.733 284.147 137.986 L 284.147 164.854 L 280.318 164.854 L 279.927 160.488 L 279.57 160.488 C 278.343 162.135 276.825 163.377 275.016 164.212 C 273.2 165.053 271.184 165.475 268.968 165.475 C 266.729 165.475 264.755 165.06 263.046 164.233 C 261.336 163.406 260.009 162.203 259.066 160.627 C 258.132 159.051 257.664 157.157 257.664 154.945 C 257.664 151.479 258.764 148.785 260.964 146.866 C 263.172 144.948 266.556 143.782 271.118 143.367 L 279.651 142.458 L 279.651 137.835 C 279.651 135.46 279.294 133.591 278.581 132.228 C 277.86 130.873 276.795 129.921 275.384 129.371 C 273.982 128.823 272.142 128.548 269.864 128.548 C 268.408 128.548 266.815 128.683 265.082 128.954 C 263.341 129.219 261.639 129.618 259.975 130.153 L 259.975 126.407 C 261.41 125.922 263.076 125.538 264.977 125.253 C 266.886 124.974 268.689 124.835 270.382 124.835 Z M 269.991 161.869 C 271.785 161.869 273.532 161.443 275.235 160.595 C 276.928 159.746 278.4 158.362 279.651 156.442 L 279.651 145.775 L 271.36 146.578 C 268.278 146.87 266.001 147.665 264.529 148.964 C 263.057 150.262 262.321 152.099 262.321 154.474 C 262.321 156.95 262.98 158.8 264.3 160.027 C 265.61 161.254 267.507 161.869 269.991 161.869 Z M 307.948 165.548 C 304.475 165.548 301.585 164.875 299.278 163.526 C 296.97 162.179 295.215 159.998 294.011 156.989 C 292.815 153.979 292.216 150.034 292.216 145.154 C 292.216 140.225 292.881 136.27 294.207 133.288 C 295.54 130.3 297.484 128.144 300.036 126.824 C 302.597 125.498 305.805 124.835 309.661 124.835 C 312.114 124.835 314.425 125.091 316.596 125.605 L 316.596 129.425 C 314.373 128.89 312.257 128.622 310.247 128.622 C 307.12 128.622 304.605 129.123 302.704 130.12 C 300.795 131.112 299.366 132.799 298.415 135.182 C 297.464 137.558 296.989 140.82 296.989 144.972 C 296.989 149.196 297.418 152.527 298.276 154.967 C 299.136 157.407 300.419 159.142 302.129 160.178 C 303.839 161.204 306.039 161.718 308.73 161.718 C 311.098 161.718 313.72 161.233 316.596 160.262 L 316.596 164.094 C 313.72 165.064 310.838 165.548 307.948 165.548 Z M 337.644 161.686 C 338.871 161.686 340.33 161.504 342.025 161.141 L 342.025 164.961 C 340.383 165.324 338.663 165.506 336.862 165.506 C 333.182 165.506 330.368 164.586 328.421 162.746 C 326.481 160.898 325.511 157.959 325.511 153.929 L 325.511 129.061 L 318.037 129.061 L 318.037 125.423 L 325.511 125.423 L 326.213 110.967 L 330.054 110.967 L 330.054 125.423 L 341.358 125.423 L 341.358 129.061 L 330.054 129.061 L 330.054 153.308 C 330.054 155.398 330.326 157.05 330.87 158.263 C 331.422 159.474 332.243 160.348 333.331 160.883 C 334.427 161.418 335.864 161.686 337.644 161.686 Z M 352.239 164.854 L 347.697 164.854 L 347.697 125.423 L 352.239 125.423 L 352.239 164.854 Z M 349.962 116.178 C 348.896 116.178 348.057 115.904 347.445 115.354 C 346.832 114.806 346.524 114.06 346.524 113.118 C 346.524 112.169 346.832 111.41 347.445 110.839 C 348.057 110.269 348.896 109.983 349.962 109.983 C 351.036 109.983 351.88 110.269 352.493 110.839 C 353.106 111.41 353.412 112.169 353.412 113.118 C 353.412 114.06 353.106 114.806 352.493 115.354 C 351.88 115.904 351.036 116.178 349.962 116.178 Z M 375.785 165.548 C 365.696 165.548 360.652 158.764 360.652 145.196 C 360.652 138.085 361.956 132.914 364.562 129.682 C 367.169 126.451 370.91 124.835 375.785 124.835 C 385.882 124.835 390.93 131.607 390.93 145.154 C 390.93 152.267 389.627 157.441 387.021 160.68 C 384.414 163.925 380.668 165.548 375.785 165.548 Z M 375.785 161.943 C 378.032 161.943 379.918 161.441 381.442 160.434 C 382.969 159.421 384.142 157.695 384.961 155.255 C 385.789 152.815 386.204 149.499 386.204 145.305 C 386.204 141.032 385.787 137.657 384.951 135.182 C 384.116 132.706 382.938 130.963 381.42 129.95 C 379.91 128.943 378.032 128.441 375.785 128.441 C 373.548 128.441 371.665 128.943 370.14 129.95 C 368.614 130.963 367.433 132.689 366.597 135.129 C 365.762 137.568 365.344 140.875 365.344 145.047 C 365.344 149.32 365.762 152.695 366.597 155.169 C 367.433 157.644 368.614 159.393 370.14 160.413 C 371.665 161.433 373.548 161.943 375.785 161.943 Z M 399.347 164.854 L 399.347 125.423 L 403.222 125.423 L 403.613 129.864 L 403.958 129.864 C 405.369 128.259 407.052 127.021 409.006 126.151 C 410.968 125.274 413.084 124.835 415.355 124.835 C 422.836 124.835 426.578 128.876 426.578 136.958 L 426.578 164.854 L 422.046 164.854 L 422.046 137.183 C 422.046 134.151 421.38 131.985 420.046 130.688 C 418.712 129.382 416.822 128.729 414.377 128.729 C 412.468 128.729 410.536 129.197 408.581 130.132 C 406.626 131.066 405.062 132.532 403.889 134.529 L 403.889 164.854 L 399.347 164.854 Z" style="fill: rgb(51, 51, 51); white-space: pre;"/>
  </g>
</svg>