<svg width="440" height="440" xmlns="http://www.w3.org/2000/svg">

 <g>
  <title>background</title>
  <rect fill="none" id="canvas_background" height="442" width="442" y="-1" x="-1"/>
 </g>
 <g>
  <title>Layer 1</title>
  <path id="svg_1" fill-rule="evenodd" fill="#010101" d="m192.743508,306.314509c0,12.536 10.177,22.712 22.713,22.712c12.537,0 22.715,-10.176 22.715,-22.712c0,-12.54 -10.178,-22.716 -22.715,-22.716c-12.536,0.001 -22.713,10.176 -22.713,22.716zm-154.454,-304.365c-20.077,0 -36.34,16.264 -36.34,36.34l0,363.421c0,20.078 16.264,36.34 36.34,36.34l363.421,0c20.078,0 36.34,-16.262 36.34,-36.34l0,-309.633c0,-12.173 -4.807,-22.985 -12.536,-30.796l-46.157,-45.979c-8.168,-8.265 -19.624,-13.352 -32.159,-13.352l-308.909,0l0,-0.001zm29.077,45.426l25.436,0l0,70.866c0,11.084 8.905,19.989 19.991,19.989l23.619,0c11.086,0 19.989,-8.905 19.989,-19.989l0,-70.866l170.805,0c11.081,0 19.992,8.905 19.992,19.991l0,87.216c0,11.086 -8.911,19.991 -19.992,19.991l-259.84,0c-11.086,0 -19.991,-8.905 -19.991,-19.991l0,-87.215c-0.001,-11.087 8.904,-19.992 19.991,-19.992zm89.034,258.939c0,-32.619 26.441,-59.057 59.056,-59.057c32.614,0 59.056,26.438 59.056,59.057c0,32.615 -26.441,59.052 -59.056,59.052c-32.615,0 -59.056,-26.436 -59.056,-59.052z" clip-rule="evenodd"/>
 </g>
</svg>