<svg width="1614" height="1614" xmlns="http://www.w3.org/2000/svg">

 <g>
  <title>background</title>
  <rect fill="none" id="canvas_background" height="1616" width="1616" y="-1" x="-1"/>
 </g>
 <g>
  <title>Layer 1</title>
  <path id="svg_1" d="m1383.000027,904.5l0,480q0,26 -19,45t-45,19l-384,0l0,-384l-256,0l0,384l-384,0q-26,0 -45,-19t-19,-45l0,-480q0,-1 0.5,-3t0.5,-3l575,-474l575,474q1,2 1,6zm223,-69l-62,74q-8,9 -21,11l-3,0q-13,0 -21,-7l-692,-577l-692,577q-12,8 -24,7q-13,-2 -21,-11l-62,-74q-8,-10 -7,-23.5t11,-21.5l719,-599q32,-26 76,-26t76,26l244,204l0,-195q0,-14 9,-23t23,-9l192,0q14,0 23,9t9,23l0,408l219,182q10,8 11,21.5t-7,23.5z"/>
 </g>
</svg>