<svg width="101.00000000000001" height="101.00000000000001" xmlns="http://www.w3.org/2000/svg">
 <g>
  <title>background</title>
  <rect x="-1" y="-1" width="103" height="103" id="canvas_background" fill="none"/>
 </g>

 <g>
  <title>Layer 1</title>
  <g id="svg_17">
   <g id="svg_8">
    <path d="m10.394455,21.457405l80,0l0,40.5c-2.1,-1.5 -3.8,-2 -6,-2c-2.9,-6.9 -5.4,-13.3 -8.9,-19.3c1.1,-3.4 0.7,-6.8 -1.9,-10c-2.6,-3.2 -7.9,-4.8 -12.3,-2.6c-3.6,1.7 -5.5,5.1 -5.7,8.1c-1.8,1.2 -2.7,2 -4.6,4.6c-1.9,2.6 -4,7.3 -5.6,11c-6,0.4 -8.3,3 -9.8,6.6c-1.5,3.6 0,9.5 3,11.6c-1.3,3.6 -2.8,6.5 -5.6,8.9c-2.7,-3.8 -6.6,-4.7 -10.1,-4.2c-3.5,0.4 -7.4,3.4 -8.3,7.6l-4.2,0l0,-60.8z" id="svg_2"/>
    <path d="m57.205547,42.499999c3.6,4.7 9.3,5.9 14.5,2.9c2.4,5.4 4.8,10.8 6.9,15.8c-4.4,2.7 -5.5,8.6 -3.5,12.9c2,4.3 6,6.5 11.7,5.7c1.3,2.8 2.5,5.3 3.8,7.9c-0.03,4.5 -0.004,9.2 0,13.3l-80.1,0c0.119,-4.7 -0.12,-8.9 0,-13.1c1.5,0 3.2,0.01 4.6,0c1.9,4.8 7.3,7.7 12.2,6.3c4.9,-1.4 7.4,-5.5 7.7,-9.4c4.7,-3.2 7.7,-7.9 9.5,-13c4.2,0.5 8.7,-2.3 10.3,-6.5c1.6,-4.2 0.6,-8.9 -3.5,-12.1c1.5,-4 3.4,-7.8 5.9,-10.8l0,0.1z" id="svg_3"/>
    <circle cy="84.239178" cx="24.677127" r="4.4" id="svg_4"/>
    <circle cy="56.599995" cx="40.295545" r="4.4" id="svg_5" transform="matrix(1,0,0,1,5.043002,5.000003) "/>
    <circle cy="31.799995" cx="60.895545" r="4.4" id="svg_6" transform="matrix(1,0,0,1,5.043002,5.000003) "/>
    <circle cy="64.799995" cx="79.395545" r="4.4" id="svg_7" transform="matrix(1,0,0,1,5.043002,5.000003) "/>
   </g>
   <g id="svg_16">
    <path stroke="null" fill="#ffffff" id="svg_9" d="m35.980232,33.806047l0,23.21426c0,0.89801 0.473341,1.67551 1.419231,2.3316c0.946408,0.65573 2.067081,0.98495 3.361504,0.98495l19.126043,0c1.294681,0 2.414305,-0.32904 3.361504,-0.98495c0.945632,-0.6559 1.41844,-1.43341 1.41844,-2.3316l0,-23.21426l-28.686721,0z"/>
    <path stroke="null" fill="#ffffff" id="svg_12" d="m22.212193,34.430345l16.083245,0l24.125188,0l16.083693,0c1.759732,0 2.995535,-0.992384 3.706525,-2.975357c0.712296,-1.93372 0.418532,-3.644943 -0.87954,-5.13288l-28.146395,-33.324785c-0.754555,-0.942369 -1.69571,-1.41369 -2.826986,-1.41369c-1.130175,0 -2.072649,0.471321 -2.826986,1.41369l-28.145513,33.324785c-1.298737,1.487937 -1.591618,3.198126 -0.879975,5.13288c0.712744,1.984007 1.948099,2.975357 3.706743,2.975357z"/>
    <path stroke="null" id="svg_10" d="m28.445585,30.090339l12.57088,0l0,23.21426c0,0.89801 0.31113,1.67551 0.93289,2.3316c0.62211,0.65573 1.35876,0.98495 2.20961,0.98495l12.57209,0c0.85102,0 1.58699,-0.32904 2.2096,-0.98495c0.62159,-0.6559 0.93238,-1.43341 0.93238,-2.3316l0,-23.21426l12.57123,0c1.37543,0 2.34135,-0.69129 2.89707,-2.07262c0.55674,-1.34702 0.32713,-2.53905 -0.68746,-3.57554l-21.9996,-23.21389c-0.58977,-0.65645 -1.32539,-0.98477 -2.20961,-0.98477c-0.88336,0 -1.62001,0.32832 -2.20961,0.98477l-21.99891,23.21389c-1.01511,1.03649 -1.24403,2.2278 -0.6878,3.57554c0.55709,1.38205 1.52266,2.07262 2.89724,2.07262z"/>
   </g>
  </g>
 </g>
</svg>